<?xml version="1.0" encoding="UTF-8" standalone="no"?>
<svg
   width="156.05084"
   height="171.55084"
   viewBox="-702 0 156.05084 171.55084"
   version="1.2"
   id="svg140"
   sodipodi:docname="double-quotes.svg"
   inkscape:version="1.2.1 (9c6d41e4, 2022-07-14)"
   xmlns:inkscape="http://www.inkscape.org/namespaces/inkscape"
   xmlns:sodipodi="http://sodipodi.sourceforge.net/DTD/sodipodi-0.dtd"
   xmlns="http://www.w3.org/2000/svg"
   xmlns:svg="http://www.w3.org/2000/svg"><defs
   id="defs144" />
<sodipodi:namedview
   id="namedview142"
   pagecolor="#ffffff"
   bordercolor="#000000"
   borderopacity="0.25"
   inkscape:showpageshadow="2"
   inkscape:pageopacity="0.0"
   inkscape:pagecheckerboard="0"
   inkscape:deskcolor="#d1d1d1"
   showgrid="false"
   inkscape:zoom="0.12606838"
   inkscape:cx="107.08475"
   inkscape:cy="912.20339"
   inkscape:window-width="1440"
   inkscape:window-height="430"
   inkscape:window-x="0"
   inkscape:window-y="25"
   inkscape:window-maximized="0"
   inkscape:current-layer="svg140" />
<title
   id="title132">DESIGN MON SITE</title>
\n<g
   id="g423"
   transform="matrix(3.4677966,0,0,2.8355512,-195.7017,-2177.7033)">
  <g
     id="g138">
    <path
       fill="#000000"
       fill-rule="evenodd"
       d="m -106,828.375 -4,0.125 -5.5,-1.5 -5.5,-5.5 -0.25,-1.25 h -1.5 l -2.5,4.5 -3.75,1.625 -3,0.125 -3.5,-0.5 -2.5,-2.5 -0.5,-1.5 -3,-7 -4,-20 -0.5,-25.5 1.5,-1.5 2.25,0.25 0.625,1.75 0.375,2.75 -1.625,0.5 0.5,6.75 4,21 1,3 3.875,7 0.5,1.5 1.5,1.5 h 2 l 1.5,1.5 v 1 l 0.5,0.5 2.5,-2.5 -0.5,-3.5 -6.125,-22 -0.875,-2 0.5,-2.5 1,-2 1.5,-1.5 h 1 l 1,1 1,-1 1.25,0.25 2.75,12.75 5.875,15 0.625,2.5 1.5,1.5 4.5,0.75 2,0.75 4.75,2.75 0.25,1.25 2,2 -0.625,3.5 -0.375,1.5 -2.5,2.5 -1.5,0.375"
       id="path136" />
  </g>
</g>
</svg>
