<svg xmlns="http://www.w3.org/2000/svg" width="220" height="126.993" viewBox="-702 0 220 126.993">
  <title>DESIGN MON SITE</title>
  \n
  <path fill="none" stroke="#000" stroke-linecap="round" stroke-linejoin="round" stroke-width="4" d="m-658.607 40.02-.383-.351-.104-1.125.181.51-.244 1.093.507 8.833 2.6 15.944 1.602 6.413-.45-.796-1.215-5.85-1.309-8.892-1.101-3.001-4.162-8.637-2.501-3.109-1.704-2.984-2.146-4.974-.79-3.717.1-1.972.474-1.76 1.467-2.839 1.782-2.403 4.86-3.875 9.831-5.585 9.209-4.032 8.971-3.227 4.364-1.267 3.165-.417 1.278.9.626 1.234.317 1.844-.16 2.448"/>
  <path fill="none" stroke="#000" stroke-linecap="round" stroke-linejoin="round" stroke-width="4" d="m-664.141 51.309.395-.594 3.45-.104 7.938-1.289 7.302-1.706 8.242-1.389M-605.132 33.752l-.386-.71-.086.794 2.62 13.567 1.175 14.251.582 4.257.94 3.729-.05-.659-.139-.158-.063.413.244-.725-.236-.045-2.328-6.928-1.596-3.774-1.997-7.142-.407-4.314.057-7.113 1.235-7.342 1.075-4.324 3.183-7.481 2.136-3.804 6.081-7.297 1.572-1.416.351.007.79 1.519 3.004 2.937 2.398 3.696 1.759 5.658.639 6.314-.78 18.595.741 9.663.929 3.697.306 2.791.722 2.353 1.719 3.526.069 1.012"/>
  <path fill="none" stroke="#000" stroke-linecap="round" stroke-linejoin="round" stroke-width="4" d="m-603.964 46.828 1.61-.626 10.34-.316 2.505-.534 4.063.269M-514.986 26.293l-.137-1.188-2.508-4.687-2.89-.481-2.52.248-2.577-.174-5.077.564-8.998 6.334-1.164.44-6.165 9.195-1.485 5.498-.185 3.224 1.202 7.517 1.9 3.926 4.675 4.794 5.091 2.408 5.997 1.073 4.215.011 4.342-.396 7.993-1.675 6.31-2.412 7.956-4.766 4.765-4.201 4.014-5.642 1.155-4.338.124-5.474-1.51-5.656-2.498-4.719-3.608-3.787-6.134-3.705-4.35-.533-3.459-.05"/>
  <path fill="none" stroke="#000" stroke-linecap="round" stroke-linejoin="round" stroke-width="4" d="m-516.315 47.364-.387-.786.068-.361.394.35 6.234 9.738 8.908 15.112 1.76 4.241.893 1.433 1.184 5.009"/>
  <path fill="#909090" fill-rule="evenodd" d="M-697 126.993h-1v-1h1zM-486.5 94.993l-1.25-.25-.25-1.25.5-.5 1.5 1.5zM-490 91.993h-1v-1h1zM-493 92.993v-2h.5l.5.5v1.5zM-482.5 90.993h-1.5l.5-1h1.5zM-485.5 90.993h-2.5l.5-1h2.5zM-489 90.993h-1v-1h1zM-561 93.993l-1-1v-1l1 .5zM-568.5 94.993l-.25-1.375 4.25-.625 1-1 .5.5-.25 1.375-4.25.125zM-696 123.993h-1v-1h1zM-699.5 124.993l-1.5-1.5.5-.5h1l1-1 .5.5v1zM-701 122.993h-1v-1h1zM-699 120.993h-1v-1h1zM-693 120.993l-.5 1-4.25-.125-.25-1.375 1.5-1.5h3.5v1h-2.5l-.5.5.5.5z"/>
  <path fill="#909090" fill-rule="evenodd" d="M-662 112.993v-1h-1v1zm3 0v-1h-1v1zm-5 1v-1h-1v1zm-18 4v-1h-1v1zm-5.5 1 .5-1h-1.5l-.5 1zm-.5 2v-1h-1v1zm93-22v-1h-1v1zm-1.5 1 .5-1h-5.5l-.5 1zm-6.5 1v-1h-1v1zm-9 1v-1h-1v1zm4 0v-1h-1v1zm-11.5 2 1-1h1l.5-1h-.5l-2.25.75zm-3 1 1.5-1.5-.5-.5h-3l-.5 1h.5zm9.5-1v-1h-1v1zm8.5 0 .5-1h-1.5l-.5 1zm-24.75 2.75.25-1.25 1-1-.5-.5h-2l-.5.5 1 1-1 1 .5.5zm-5.25-.75.5-1h-1.5l-.5 1zm11.5 0v-1h-1v1zm-15 1v-1h-1v1zm-5.5 1 .5-1h-1.5l-.5 1zm4.5 0v-1h-1v1zm3.5 0 .5-1h-1.5l-.5 1zm-13 1 .5-1h-1.5l-.5 1zm2.5 0v-1h-1v1zm4 0v-1h-1v1zm2 0v-1h-1v1zm-5 1v-1h-1v1zm-13 1v-1h-1v1zm6 0v-1h-1v1zm2 0v-1h-1v1zm2.5 0 .5-1h-1.5l-.5 1zm-8.5 1v-1h-1v1zm2.5 0 .5-1h-1.5l-.5 1zm-3.5 1v-1h-1v1zm122-20v-1.5l-1-.5v1zm2-1v-1h-1v1zm3.5 1 1-1h1l.5-1h-4.5l-1.5 1.5.5.5h1l1-1zm-25.5 1.625 3.5-.625.5-1h-6.5l-.5.5 1.5 1.5zm10.5 1.375.5-1h-2.5l-.5 1zm2.5 0v-1h-1v1zm-39.5 2 1-1h3l.5-1h-5.5l-.5.5zm29-1 .5-1h-6.5l-.5 1zm2.5 0v-1h-1v1zm-33.5 1 .5-1h-3.5l-.5 1zm18 0 .5-1h-2.5l-.5 1zm2.5 0v-1h-1v1zm4 0v-1h-1v1zm-33.5 1 .5-1h-1.5l-.5 1zm4.5 0v-1h-1v1zm17 0v-1h-1v1zm-9 1v-1h-1v1zm2.5 0 .5-1h-1.5l-.5 1zm2.5 0v-1h-1v1zm-10 1v-1h-1v1zm2 0v-1h-1v1zm-6.5 1 .5-1h-2.5l-.5 1zm71.5-11v-1h-1v1zm2.5 1 1.5-1.5-.5-.5h-2l-.5.5zm7.5-1v-1h-1v1zm3 0v-1h-1v1zm-18.5 1 .5-1h-1.5l-.5 1zm2.5 0v-1h-1v1zm11 1v-1h-1v1zm2.5 0 .5-1h-1.5l-.5 1zm6 0 .5-1h-1.5l-.5 1zm3.5 0v-1h-1v1zm2 0v-1h-1v1zm4 0h2.5l.5.5-2.5 2.5-13 1-1-1-1 1-20 1-1-1-1 1h-6l-1 1-1-1h-3l-1 1-1-1-1 1h-7l-1 1-1-1-1 1-1-1-1 1-10 1-1-1-1 1-9 1-1-1-1 1-6 1-1-1-1 1-37.5 5.5-4 1-41.5 8.5-1 1-1-1-1 1-11 2-.5-.5 1-1-.5-.5-1.25.25-.5 1.5-2.75.875h-2l-4-.625v-1h1.5l.5-.5-.5-.5h-1.5l.25-.75 32.75-8.75h4l2.5.5.5-.5-1-1 .5-.5 6-1 1-1 1 1 1-1h2l1 1 .5-.5.25-1.25 15.75-2.75 21-4 4.5-.5 1-1 1 1 1-1 25-3 1-1 .5.5-.25 1.25-3.25.25-.5.5 1.5 1.5 1-1 13-1 .5-.5-2-2 .5-.5 17.25-1.75v1.625l-5.25.125-1 1-1-1-.5.5.25 1.375 12.5-1v-1.625l-3.5.5v-1.75h13.25l1-1 1 1 1-1h1l1 1 1-1h25l1 1 1-1 1.25.25.25 1.75-2 1.5.5.5h1.5l.5 1zm-36.5 2 .5-1h-2.5l-.5 1z"/>
</svg>
