<?xml version="1.0" encoding="UTF-8" standalone="no"?>
<svg
   width="1221"
   height="599.5"
   viewBox="-702 0 1221 599.5"
   version="1.2"
   id="svg208"
   sodipodi:docname="fleche-parcours-4.svg"
   inkscape:version="1.2.1 (9c6d41e4, 2022-07-14)"
   xmlns:inkscape="http://www.inkscape.org/namespaces/inkscape"
   xmlns:sodipodi="http://sodipodi.sourceforge.net/DTD/sodipodi-0.dtd"
   xmlns="http://www.w3.org/2000/svg"
   xmlns:svg="http://www.w3.org/2000/svg"><defs
   id="defs212" />
<sodipodi:namedview
   id="namedview210"
   pagecolor="#ffffff"
   bordercolor="#000000"
   borderopacity="0.25"
   inkscape:showpageshadow="2"
   inkscape:pageopacity="0.0"
   inkscape:pagecheckerboard="0"
   inkscape:deskcolor="#d1d1d1"
   showgrid="false"
   inkscape:zoom="0.12606838"
   inkscape:cx="27.762712"
   inkscape:cy="253.83051"
   inkscape:window-width="1440"
   inkscape:window-height="430"
   inkscape:window-x="0"
   inkscape:window-y="25"
   inkscape:window-maximized="0"
   inkscape:current-layer="svg208" />
<title
   id="title132">DESIGN MON SITE</title>
\n<g
   id="g525"
   transform="translate(-99,-679.5)">
  <g
     id="g138">
    <path
       fill="#000000"
       fill-rule="evenodd"
       d="m 89.5,1279 -2.5,-1.37 -2.75,-0.88 -4.75,-6.75 -0.5,-1.5 -2,-2 v -2 l -2,-2 1,-1 -1,-1 -0.25,-2.25 -1.25,-0.25 -0.5,-0.5 1,-1 -1.25,-3.25 -1.25,-0.25 -0.5,-0.5 1,-1 -1.25,-4.25 -1.25,-0.25 -0.5,-0.5 1,-1 -1,-1 v -2 l -2,-2 1,-1 -2,-2 v -1 l 1,-1 -2,-2 -0.375,-1.5 -1.25,-3 -0.375,-1.5 1,-1 -1,-1 v -1 l -2,-2 v -4 l -2,-2 1,-1 -0.25,-1.25 -1.25,-0.25 -0.5,-0.5 1,-1 -1,-1 v -3 l -2,-2 1,-1 -1,-1 -0.625,-4.5 -1,-3 -1.625,-3.75 -1.5,-0.5 -0.625,-1.75 -0.125,-4 0.5,-3.5 -1,-1 1,-1 v -3 l 2.5,-2.5 h 4 l 1.5,1.5 4.625,17.5 0.75,2 9.25,30 12,35 2.375,4.5 1.5,1.5 2,-2 1.25,-0.25 8.75,-11.75 1.5,-2.5 2,-2 v -2 l 2,-2 1,-2 3.5,-5.5 9,-15 25,-35 0.5,-1.5 2.5,-2.5 1.25,-0.25 7.5,-9.5 1.5,-0.5 0.25,-1.25 22.5,-22.5 1.25,-0.25 0.5,-1.5 2.75,-1.75 10,-8 1.75,-0.75 0.25,-1.25 1.5,-1.5 3.25,-1.25 0.5,-1.5 3.25,-1.25 3,-3 2.25,-0.25 0.25,-1.25 0.5,-0.5 1,1 1.5,-1.5 0.25,-1.25 2.75,-0.75 3.5,-0.5 1,-1 2,2 1.375,0.25 0.125,4.25 -4.5,4.5 -1.5,0.5 -8.5,5.5 -14,11 -3,2 -2.5,2.5 -0.25,1.25 -1.5,0.5 -0.5,1.5 -5.25,3.25 -3.5,3.5 -0.25,1.25 -1.25,0.25 -1.5,1.5 -0.25,1.25 -1.25,0.25 -3.5,3.5 -0.25,1.25 -1.5,0.5 -3.5,5.5 -1.25,0.25 -4.5,4.5 -8.25,10.25 -1.5,0.5 -1.25,2.25 -14.5,20.5 -1.5,2.5 -9,13 -15.5,25.5 -5.5,7.5 -1,2 -2.5,2.5 -1.25,0.25 -0.25,1.25 -3.5,3.5 -1,-1 -0.5,0.5 v 1 l -0.5,0.5 -1,-1 -1,1 -2.25,0.25 -0.25,1.25 -0.5,0.5 M 61,1188 v -1 h -1 v 1 h 1"
       id="path136" />
  </g>
  <g
     id="g142">
    <path
       fill="#000000"
       fill-rule="evenodd"
       d="m 114.5,1184 -2.25,-1.25 -0.25,-1.25 -2,-2 -0.5,-3.5 -2,-7 -7.75,-74 0.5,-1.75 1.75,-0.75 h 2 l 1.5,0.5 1.5,1.5 v 1 l 1,1 -1,1 1,1 3,25 1,1 -1,1 1,1 3.5,39.5 2.5,12.5 1,1 -1,1 v 1 l -1.5,1.5 h -1 l -1,1"
       id="path140" />
  </g>
  <g
     id="g146">
    <path
       fill="#000000"
       fill-rule="evenodd"
       d="m 162,984.5 -11,-1.875 -21.5,0.375 -1,-1 -1,1 -1,-1 -1,1 -8.5,0.625 -4,1 -7,2.75 -2.5,0.625 -2,2 -4.5,0.75 -2,-0.25 -1.5,-0.5 -1.5,-1.5 v -4 l 3.5,-3.5 1.5,-0.5 14,-6.125 2,-0.625 7,-1.5 4,0.625 10.5,-0.875 1,1 1,-1 1,1 1,-1 h 10 l 1,-1 1,1 10.5,2.625 3.75,1.625 0.5,1.75 0.75,4.5 -1.5,1.5 -2.5,0.5"
       id="path144" />
  </g>
  <g
     id="g150">
    <path
       fill="#000000"
       fill-rule="evenodd"
       d="m 88.5,1049 h -2 l -4.5,-4.5 1,-1 -1,-1 -1.25,-3.25 -1.5,-0.5 -0.75,-3.75 -1.75,-4.75 -1.25,-0.25 -0.5,-0.5 1,-1 -1,-1 -0.5,-1.5 -11.5,-20.5 -5,-8 -1,-2 -5.5,-5.5 -1.25,-0.25 -0.25,-1.25 -6.5,-6.5 -4,-2 -2,-2 h -2 l -2.5,-2.5 -1,-4 2.5,-2.5 6.5,1.625 5,2.875 1.5,0.5 16.5,16.5 1,2 4.375,6.5 1.25,3 3.875,7 0.5,1.5 3,3 1,4 2,2 1,4 2,2 0.625,2.5 5.625,13 0.75,5.5 -2.5,2.5"
       id="path148" />
  </g>
  <g
     id="g154">
    <path
       fill="#000000"
       fill-rule="evenodd"
       d="m -13.5,956 -6.5,-2.5 -7,-1.75 -19,-2.5 -5,-1.5 -8,-1.25 -11.5,-0.5 -1,-1 -1,1 -1,-1 -1.5,0.5 -2,0.375 -12.5,-0.875 -1,-1 -1,1 h -7 l -1,-1 -1,1 -1.5,-0.25 -5,-1.5 -1.5,-0.25 -2.5,-2.5 v -4 l 2.5,-2.5 2.5,-0.625 2,-0.25 15.5,0.875 1,1 1,-1 13,1 1,1 1,-1 h 2 l 1,1 1,-1 1,1 h 8 l 1,1 1,-1 1,1 9,1 2,2 13.5,1.5 13,3.125 2,0.75 2.5,0.625 3.5,3.5 v 2 l 1,1 -2.5,2.5 h -1 l -1,1"
       id="path152" />
  </g>
  <g
     id="g158">
    <path
       fill="#000000"
       fill-rule="evenodd"
       d="m -172,944.5 -53.5,1.5 -2.5,-2.5 v -3 l 2.5,-2.5 1.5,-0.5 2,-0.375 36.5,-1.125 1,-1 1,1 1,-1 h 7 l 1,-1 1,1 1,-1 h 11 l 3.5,3.5 v 3 l -2.5,2.5 -11.5,1.5"
       id="path156" />
  </g>
  <g
     id="g162">
    <path
       fill="#000000"
       fill-rule="evenodd"
       d="m -274.5,949 h -48 l -1,1 -1,-1 h -3 l -1,1 -1,-1 -5.5,0.625 -3,-0.25 -3.75,-1.625 -0.625,-1.75 v -3 l 0.375,-1.5 1.5,-1.5 21,-2 1,1 1,-1 h 43.25 l 0.5,1.75 1.5,0.5 0.625,1.75 v 3 l -0.375,1.5 -2.5,2.5"
       id="path160" />
  </g>
  <g
     id="g166">
    <path
       fill="#000000"
       fill-rule="evenodd"
       d="m -390.5,948 -28.5,-1.5 -22,-4 -14.5,-3.5 -1,1 -1,-1 -1.25,-0.25 -1.25,-4.25 -1,-1 1,-1 0.25,-1.25 1.75,-0.5 h 10 l 1.5,0.25 1,1 1,-1 1.25,0.25 0.25,1.25 0.5,0.5 1,-1 9,2 1,1 1,-1 26.5,3.75 11,-0.125 2.5,0.375 2.5,2.5 v 2 l 1,1 -1,1 v 1 l -2.5,2.5"
       id="path164" />
  </g>
  <g
     id="g170">
    <path
       fill="#000000"
       fill-rule="evenodd"
       d="m -517.5,915 -6,-1 -2,-2 h -1 l -2,-2 -1,1 -1.5,-1.5 v -1 l -1.5,-1.5 -2.5,-1.5 -3.5,-2.5 -2.5,-1.5 -1.5,-0.5 -7.5,-7.5 -1,-3 -1,-1 1,-1 v -1 l 2.5,-2.5 3.5,0.625 21.5,16.375 2.5,1.5 1.5,0.5 3.5,3.5 0.375,1.5 0.625,3.5 -2.5,2.5"
       id="path168" />
  </g>
  <g
     id="g174">
    <path
       fill="#000000"
       fill-rule="evenodd"
       d="m -601,793 -1,-1 v -1 l 1,0.5 v 1.5"
       id="path172" />
  </g>
  <g
     id="g178">
    <path
       fill="#000000"
       fill-rule="evenodd"
       d="m -579.5,843 -4.5,-0.75 -1.75,-0.5 -3.625,-5.75 -4.125,-10 -0.5,-2.5 -1,-1 1,-1 -1,-1 -0.5,-2.5 -1,-3 -0.5,-2.5 -1,-1 1,-1 -1,-1 v -3 l -1,-1 1,-1 -1,-1 v -2 l -1,-1 1,-1 -3,-20 -1,-1 1,-1 v -4 l 3.5,-3.5 h 3 l 1.5,1.5 0.375,1.5 1.125,3 0.5,2.5 -1,1 1,1 0.5,8.5 2,13 5,19 3.125,8 0.375,1.5 2,2 0.625,2.5 0.875,2 0.125,2 -0.625,2.5 -1.5,1.5"
       id="path176" />
  </g>
  <g
     id="g182">
    <path
       fill="#000000"
       fill-rule="evenodd"
       d="m -590.5,724 -4.25,-1.25 -0.75,-2.75 0.125,-3 3,-8 2.75,-5 1.125,-3 2.5,-11.5 2,-2 2,-4 3.5,-3.5 1.5,-0.5 h 2 l 2,1 1.75,0.75 0.5,1.75 0.625,6.75 -1.875,0.625 -3.5,0.625 -1.5,1.5 -3.625,13.5 -0.75,2 -0.625,2.5 -2,2 -0.375,1.5 -2.875,7.75 -1.25,0.25 -2,2 m 12.5,-30 v -1 h -1 v 1 h 1 m -2,9 v -1 h -1 v 1 h 1"
       id="path180" />
  </g>
  <g
     id="g186">
    <path
       fill="#000000"
       fill-rule="evenodd"
       d="m 457,990.375 -6.5,1.625 -2,2 -1.5,0.5 -7,2.875 h -3 l -1.5,-0.375 -2.5,-2.5 0.625,-3.5 0.625,-1.75 1.75,-0.75 14,-6 14,-6.875 2.5,-0.625 2,-2 1.5,-0.5 2,-1 12,-7.75 4.5,-0.75 2.5,2.5 v 3 l -3,3 v 1 l -1.5,1.5 -1,-1 -1.5,1.5 v 1 l -0.5,0.5 -1,-1 -0.5,0.5 -0.25,1.25 -1.75,0.75 -2,1 -1.75,0.75 -0.5,1.5 -1.75,0.75 -4,1.875 -2.75,0.875 -0.25,1.25 -0.5,0.5 -1,-1 -0.5,0.5 v 1 l -0.5,0.5 -1,-1 -0.5,0.5 v 1 l -0.5,0.5 -1,-1 -1,1 -1.25,0.25 -0.5,1.5 -1.75,0.625"
       id="path184" />
  </g>
  <g
     id="g190">
    <path
       fill="#000000"
       fill-rule="evenodd"
       d="m 535.5,925 -3,-1 -1.5,-1.5 v -6 l 4,-4 v -1 l 2,-2 v -2 l 2,-2 0.5,-1.5 2.75,-4.75 1.5,-0.5 0.5,-1.5 1.75,-0.75 2,-0.125 2.75,0.875 0.625,1.75 0.125,3 -0.5,2.5 -2,2 -1,3 -2,2 v 2 l -3,3 -1,2 -2,3 -1.25,2.25 -2.25,0.25 -1,1"
       id="path188" />
  </g>
  <g
     id="g194">
    <path
       fill="#000000"
       fill-rule="evenodd"
       d="m 583.375,843 -3.75,8 -0.625,2.5 -2,2 -0.25,1.25 -1.75,0.5 -4.5,0.75 -2.5,-2.5 0.625,-4.5 1,-3 10,-25 0.375,-1.5 2,-2 -1,-1 0.375,-1.5 1.25,-3 0.375,-1.5 1,-1 -1,-1 0.25,-1.25 1.25,-0.25 0.5,-0.5 -1,-1 1,-1 1,-3 -1,-1 2,-2 v -1 l 2.5,-2.5 h 1 l 1,-1 1,1 h 1 l 1.5,1.5 v 1 l 1,1 -1,1 1,1 -1,1 -0.625,5.5 -4.875,17 -6.125,17"
       id="path192" />
  </g>
  <g
     id="g198">
    <path
       fill="#000000"
       fill-rule="evenodd"
       d="m 605,754.5 -3.75,-0.75 -0.5,-1.75 v -6 l 0.25,-1.5 -1,-1 1,-1 4,-20 1,-1 -1,-1 1,-1 2,-29 -1,-1 1,-1 v -1 l 3.5,-3.5 5,1 1.5,1.5 -1,6 -1,1 1,1 -1,1 1,1 v 2 l -1,1 1,1 -0.125,5.25 -1.625,0.5 -0.25,2.25 1,1 -1,1 0.375,1.5 v 4 l -0.375,1.5 -1,1 1,1 -1,1 1,1 -2,2 1,1 -1,5 -1,1 1,1 -1,1 v 1 l -1,1 1,1 -2,8 -1,1 1,1 v 3 l -2,2 v 2 l -1.5,1.5 -1.5,0.5"
       id="path196" />
  </g>
  <g
     id="g202">
    <path
       fill="#000000"
       fill-rule="evenodd"
       d="m 350,1017.5 -12.5,0.5 -1,-1 -1,1 h -3 l -1,-1 -1,1 -1,-1 h -1 l -3.5,-3.5 1.25,-4.25 1.75,-0.62 3.5,-0.63 1,-1 1,1 1,-1 1,1 1,-1 1,1 h 2 l 1,-1 1,1 h 1 l 1,-1 1,1 28,-3 1,-1 1,1 1,-1 h 1 l 1,1 1,-1 4.25,1.25 1.25,4.25 -2,2 -0.25,1.25 -31.75,4.75 m 22,-3.5 v -1 h -1 v 1 h 1 m -8,1 v -1 h -1 v 1 h 1 m -30,2 v -1 h -1 v 1 h 1"
       id="path200" />
  </g>
  <g
     id="g206">
    <path
       fill="#000000"
       fill-rule="evenodd"
       d="m 274,1011.25 -5.5,0.75 -1,-1 -1,1 -3.5,-1.25 -40,-6.5 -3,-0.75 -6.75,-2.75 -0.625,-1.75 -0.625,-3.5 2.5,-2.5 5.5,0.75 6,1.625 7,1.125 7,1.875 4.75,-0.125 0.25,1.25 0.5,0.5 1,-1 25,3 2,2 2.25,0.25 0.625,1.75 v 3 l -0.625,1.75 -1.75,0.5"
       id="path204" />
  </g>
</g>
</svg>
