<?xml version="1.0" encoding="UTF-8" standalone="no"?>
<svg
   width="1404"
   height="1872"
   viewBox="-702 0 1404 1872"
   version="1.2"
   id="svg236"
   sodipodi:docname="DESIGN MON SITE - page 9 (1).svg"
   inkscape:export-filename="DESIGN MON SITE - page 9 (1).svg"
   inkscape:export-xdpi="96"
   inkscape:export-ydpi="96"
   inkscape:version="1.2.1 (9c6d41e4, 2022-07-14)"
   xmlns:inkscape="http://www.inkscape.org/namespaces/inkscape"
   xmlns:sodipodi="http://sodipodi.sourceforge.net/DTD/sodipodi-0.dtd"
   xmlns="http://www.w3.org/2000/svg"
   xmlns:svg="http://www.w3.org/2000/svg"><defs
   id="defs240" />
<sodipodi:namedview
   id="namedview238"
   pagecolor="#ffffff"
   bordercolor="#000000"
   borderopacity="0.25"
   inkscape:showpageshadow="2"
   inkscape:pageopacity="0.0"
   inkscape:pagecheckerboard="0"
   inkscape:deskcolor="#d1d1d1"
   showgrid="false"
   inkscape:zoom="0.3154039"
   inkscape:cx="670.56875"
   inkscape:cy="908.35909"
   inkscape:window-width="1440"
   inkscape:window-height="847"
   inkscape:window-x="0"
   inkscape:window-y="25"
   inkscape:window-maximized="0"
   inkscape:current-layer="g1167" />
<title
   id="title132">DESIGN MON SITE</title>
\n<g
   id="g1167"
   transform="matrix(0.99783158,0,0,1,4.559119,-3.0444663)">
  <g
     id="g138">
    <path
       fill="none"
       stroke="#000000"
       stroke-width="4"
       stroke-linecap="round"
       stroke-linejoin="round"
       d="m -238.835,858.823 -3.405,-0.504 -3.266,0.573 -11.265,2.802 -4.774,2.22 -4.533,2.75 -3.259,3.08 -1.83,2.689 -0.332,2.423 -0.082,1.407 0.548,1.856 1.632,2.274 1.513,0.695 4.943,3.369 5.747,3.019 3.88,2.696 5.495,5.059 2.385,3.21 1.967,3.889 0.959,3.974 -0.426,7.899 -0.5,2.203 -0.951,1.938 -1.859,2.435 -2.946,2.812 -7.096,2.158 -3.813,0.75 -12.116,0.902 -6.382,-0.014 -5.07,0.349 -4.316,-0.515"
       id="path136" />
  </g>
  <g
     id="g142">
    <path
       fill="none"
       stroke="#000000"
       stroke-width="4"
       stroke-linecap="round"
       stroke-linejoin="round"
       d="m -216.298,912.509 1.164,0.513 2.327,-0.146 5.145,-2.037 5.872,-2.922 1.877,-1.717 1.628,-2.652 -0.08,-0.883 -0.746,-1.116 -1.652,-1.077 -2.371,-0.401 -2.449,0.411 -11.384,4.669 -4.372,2.423 -2.3,2.568 -0.951,2.079 -0.3,1.602 0.148,3.516 1.612,4.19 1.561,2.502 1.578,1.635 2.071,1.336 1.994,0.631 4.639,0.116 4.858,-0.307 17.118,-3.689"
       id="path140" />
  </g>
  <g
     id="g146">
    <path
       fill="none"
       stroke="#000000"
       stroke-width="4"
       stroke-linecap="round"
       stroke-linejoin="round"
       d="m -165.524,905.941 1.028,8.795 2.944,11.273 -0.528,-1.533 -1.354,-2.112 -4.975,-9.821 -0.753,-3.421 0.928,-2.763 2.267,-2.697 2.45,-2.238 3.637,-2.174 6.414,-3.13 2.517,-0.525 1.09,0.171 2.284,1.665 1.157,1.295"
       id="path144" />
  </g>
  <g
     id="g150">
    <path
       fill="none"
       stroke="#000000"
       stroke-width="4"
       stroke-linecap="round"
       stroke-linejoin="round"
       d="m -122.946,902.563 0.89,6.694 1.286,5.275 2.765,7.451 2.52,4.146 0.375,-4.924 1.283,-3.737 5.329,-9.682 7.085,-10.574 -1.43,1.513"
       id="path148" />
  </g>
  <g
     id="g154">
    <path
       fill="none"
       stroke="#000000"
       stroke-width="4"
       stroke-linecap="round"
       stroke-linejoin="round"
       d="m -81.2398,899.558 0.2004,3.396 2.2585,10.187 1.0219,7.526 0.8685,3.696 0.4849,0.64"
       id="path152" />
  </g>
  <g
     id="g158">
    <path
       fill="none"
       stroke="#000000"
       stroke-width="4"
       stroke-linecap="round"
       stroke-linejoin="round"
       d="m -35.5566,898.439 -0.465,-0.792 -1.8062,0.531 -7.9059,5.043 -4.2794,4.13 -1.434,2.091 -2.7636,5.183 -1.2903,4.575 -0.159,1.969 0.3337,2.277 1.5282,2.698 1.6343,1.242 1.896,0.784 5.829,1.172 8.4848,0.337 4.4691,-0.348 6.0861,-1.344 5.6426,-2.114 2.4976,-1.445 2.2849,-2.372"
       id="path156" />
  </g>
  <g
     id="g162">
    <path
       fill="none"
       stroke="#000000"
       stroke-width="4"
       stroke-linecap="round"
       stroke-linejoin="round"
       d="m 3.75701,910.004 0.13042,0.232 2.30633,-0.572 4.81864,-2.126 8.5695,-4.978 1.0041,-0.999 0.1341,-0.59 -1.3033,-1.91 -2.1756,-0.397 -6.28,0.933 -5.7145,-0.043 -2.68914,1.132 -3.407164,2.122 -0.964446,0.965 -0.75304,1.468 -0.92475,3.697 0.02496,4.636 0.36777,2.436 0.64968,1.754 1.798514,3.073 2.641576,2.715 5.2432,3.296 4.09304,1.178 4.9797,0.691 4.4837,-0.223 6.4738,-1.411 3.9123,-1.511"
       id="path160" />
  </g>
  <g
     id="g166">
    <path
       fill="none"
       stroke="#000000"
       stroke-width="4"
       stroke-linecap="round"
       stroke-linejoin="round"
       d="m 73.6904,896.889 -0.3459,-0.986 -4.9947,-0.548 -5.0841,0.193 -4.2707,1.048 -2.2543,1.096 -0.968,0.88 -0.8896,1.592 -0.3419,1.489 0.2297,2.37 1.4794,2.72 9.6644,10.883 2.5969,3.673 1.1243,3.276 -0.2372,2.264 -1.5995,1.457 -2.5151,0.461 -13.703,-1.059"
       id="path164" />
  </g>
  <g
     id="g170">
    <path
       fill="none"
       stroke="#000000"
       stroke-width="4"
       stroke-linecap="round"
       stroke-linejoin="round"
       d="m -82.3835,883.728 -0.0271,-0.911"
       id="path168" />
  </g>
  <g
     id="g174">
    <path
       fill="#1d1d1d"
       fill-rule="evenodd"
       opacity="0.500008"
       d="m -285,985 v -0.5 l 1,-1 V 983 h 6 l -0.5,1 -6.5,1"
       id="path172" />
  </g>
  <g
     id="g178">
    <path
       fill="#1d1d1d"
       fill-rule="evenodd"
       opacity="0.500008"
       d="m 87,972 0.5,-3 1,-4 0.5,-4.5 1.5,-1.5 3.5,0.5 19.5,4.5 1.5,-2 3,2.5 1,4 1,1 -1,1 v 2 L 116.5,975 104,975.375 93,973.5 87,972"
       id="path176" />
  </g>
  <g
     id="g182">
    <path
       fill="#1b1b1b"
       fill-rule="evenodd"
       opacity="0.500008"
       d="m 87,972 -9,-1.5 -27,-6 -5,-0.5 2,-13 52,5.5 6,1.25 4,1.625 2.5,0.625 2.5,2 -1.5,2 -19.5,-4.5 -3.5,-0.5 -1.5,1.5 -0.5,4.5 -1,4 -0.5,3"
       id="path180" />
  </g>
  <g
     id="g186">
    <path
       fill="#1a1a1a"
       fill-rule="evenodd"
       opacity="0.500008"
       d="m -112,963 v -0.5 l 0.5,-0.5 h 5.5 v 0.5 l -0.5,0.5 h -5.5"
       id="path184" />
  </g>
  <g
     id="g190">
    <path
       fill="#1a1a1a"
       fill-rule="evenodd"
       opacity="0.500008"
       d="m -86,962 v -0.5 l 0.5,-0.5 h 5.5 v 0.5 l -0.5,0.5 H -86"
       id="path188" />
  </g>
  <g
     id="g194">
    <path
       fill="#1a1a1a"
       fill-rule="evenodd"
       opacity="0.500008"
       d="m -57,961 0.25,-1 79.75,2 -0.5,1 -79.5,-2"
       id="path192" />
  </g>
  <g
     id="g198">
    <path
       fill="#1a1a1a"
       fill-rule="evenodd"
       opacity="0.500008"
       d="m -146,965 v -0.5 l 0.5,-0.5 h 10.5 v 0.5 l -0.5,0.5 H -146"
       id="path196" />
  </g>
  <g
     id="g202">
    <path
       fill="#1a1a1a"
       fill-rule="evenodd"
       opacity="0.500008"
       d="m -131,964 v -0.5 l 0.5,-0.5 h 9.5 v 0.5 l -0.5,0.5 h -9.5"
       id="path200" />
  </g>
  <g
     id="g206">
    <path
       fill="#1d1d1d"
       fill-rule="evenodd"
       opacity="0.500008"
       d="m -218,973 v -1 h 7 v 1 h -7"
       id="path204" />
  </g>
  <g
     id="g210">
    <path
       fill="#191919"
       fill-rule="evenodd"
       opacity="0.500008"
       d="m -211,972 0.25,-0.875 64.75,-6.125 -0.5,1 -64.5,7 v -1"
       id="path208" />
  </g>
  <g
     id="g214">
    <path
       fill="#1c1c1c"
       fill-rule="evenodd"
       opacity="0.500008"
       d="m -220,965 v -3.5 l 0.5,-0.5 h 12.5 l -0.5,1 -10,1 -2.5,2"
       id="path212" />
  </g>
  <g
     id="g218">
    <path
       fill="#131313"
       fill-rule="evenodd"
       opacity="0.500008"
       d="m -112,963 h -9 -9.5 l -0.5,0.5 v 0.5 h -4 -10.5 l -0.5,0.5 v 0.5 l -64.75,6.125 L -211,972 h -7 -0.5 l -1.5,-1.5 V 965 l 2.5,-2 10,-1 0.5,-1 229.5,-8 2.5,2.5 0.5,1.5 v 2 l -1.5,3 h -1 l -79.75,-2 -0.25,1 h -23 -5.5 l -0.5,0.5 v 0.5 h -20 -5.5 l -0.5,0.5 v 0.5"
       id="path216" />
  </g>
  <g
     id="g222">
    <path
       fill="#1d1d1d"
       fill-rule="evenodd"
       opacity="0.500008"
       d="m -286,985 -0.5,1 -7,-1 -1.5,-1.5 1,-5.5 v 1.5 l 2.5,2.5 5.5,3"
       id="path220" />
  </g>
  <g
     id="g226">
    <path
       fill="#171717"
       fill-rule="evenodd"
       opacity="0.500008"
       d="m -285,985 h -1 l -5.5,-3 -2.5,-2.5 v -1.5 -1 l 1.5,-1 h 2 l 1,-1 1.5,1 h 1.5 l 2.5,2.5 0.5,1.5 -0.5,3 v 0.5 l -1,1 v 0.5"
       id="path224" />
  </g>
  <g
     id="g230">
    <path
       fill="#1b1b1b"
       fill-rule="evenodd"
       opacity="0.500008"
       d="m -284,983 0.5,-3 -0.5,-1.5 -2.5,-2.5 h -1.5 v -0.5 l 1.5,-1.5 4.5,-0.5 37,-7 3.75,-0.25 1.75,6.75 0.5,3 -34,6.5 -5,0.5 h -6"
       id="path228" />
  </g>
  <g
     id="g234">
    <path
       fill="#191919"
       fill-rule="evenodd"
       opacity="0.500008"
       d="m 46,964 -22,-2 1.5,-3 v -2 L 25,955.5 22.5,953 -207,961 h -12.5 l -0.5,0.5 v 3.5 5.5 l 1.5,1.5 h 0.5 v 1 l -21,3 -0.5,-3 -1.75,-6.75 -3.75,0.25 -37,7 -4.5,0.5 -1.5,1.5 v 0.5 l -1.5,-1 -1,1 h -2 l -1.5,1 v -2.5 l 2.5,-2.5 1.5,-0.5 12.5,-6.5 6.5,-4.5 12,-5 50,-10 221,1 36,4.5 -2,13"
       id="path232"
       style="display:inline" />
  </g>
</g>
</svg>
