<svg xmlns="http://www.w3.org/2000/svg" width="549" height="126.945" viewBox="-702 0 549 126.945">
  <title>DESIGN MON SITE</title>
  \n
  <path fill="none" stroke="#000" stroke-linecap="round" stroke-linejoin="round" stroke-width="4" d="m-625.207 20.333-.369 1.132.294 5.559-2.754 18.713-.246 4.838.715 4.705.169 3.536.438 1.269M-663.439 29.48l-.661-.929-.255-.851.207-.434 4.796-2.035 2.815-1.897 16.766-5.438 18.028-6.831 13.742-4.617 14.364-4.121 3.096-.327 1.175.2M-595.513 44.707l.389.116-.083.459-.222-.064.557.303-.05.301.377-.798 1.295.527 4.705-1.159 6.626-2.434 6.951-3.953.649-1.114-.233-1.435-1.218-.207-1.054.235-3.462-.594-2.168.177-4.53 1.315-2.337 1.347-2.193.439-4.978 2.218-2.597 2.213-.868 1.397-.294 1.463.628 2.486 1.678 1.774 3.087 1.755 4.418 1.484 5.438.827 2.738.931 9.136-.689 5.423-.047M-571.918 19.528l-.04-2.979.655-1.833.458-.047 3.353-3.725 6.202-2.32 9.295-2.414M-540.527 36.501l.02-1.852-.313.107.262-.051.135 1.484.124 5.045-.148 11.187.227 3.924.646 1.259-.009.692 1.856-9.127 2.905-9.877 3.277-4.235 1.401-1.194.998-.062 2.666-2.08.466.327 2.589 4.361 2.341 4.736.924 2.703.689 3.494-.677 5.364-.952 2.425-.034 1.53 2.376-5.122M-508.223 39.196l1.228-.178 1.823 5.412.043 3.802-.334 2.927-.817 1.677.14.676M-472.015 41.314l-2.189-1.629-4.364 1.502-2.34 1.36-2.975 2.618-1.778 2.1-1.025 2.855-.169 2.745.244.867 1.465 1.805 2.996 1.172 5.483-.67 4.772-1.733 2.158-1.153 3.215-2.457 1.358-1.484 1.189-2.125.311-1.624-.227-.683-.711-.905-1.292-.745-2.136-.114-1.091.516-.421-.386-2.117-.131-1.008-.584-1.796.548-.883-.224-1.046.983M-450.334 37.832l.553 17.015 1.568 4.821 1.231 2.143 1.285 1.196M-408.83 47.871l-.922-1.337-2.561-2.158-2.109.022-5.353 1.205-4.542 2.823-1.307 1.477-.654 1.834.062 2.257 1.068 2.331 1.797 1.223 4.73 1.195 5.605-.262 5.339-1.416 4.141-2.623.495-1.466-.142-1.438-1.44-2.569-.873-.867-.428-1.174-.4-.246-.471-1.065.752-.204"/>
  <path fill="none" stroke="#000" stroke-linecap="round" stroke-linejoin="round" stroke-width="4" d="m-401.895 43.157-1.01-.521-1.162-.124-2.375.749-1.772 1.756-1.066 3.814.85 5.679 6.92 16.004 1.636 4.728.54 2.414-.319 2.272-.696 2.077-1.114 1.977-2.301 1.812-2.34 1.326-2.939.961-4.235.067-4.769-.83-4.136-1.315M-377.117 43.203l.28-1.979-.124-.343-.156.364-.068 1.914.503 3.674-.098 2.542-1.423 9.161.258-.852 4.762-7.435M-364.687 42.207l1.007-.193.785.397 1.873 3.721.285 3.258-.542 5.772.264 1.349.653.81M-324.557 41.052l-.388-.63-2.906.563-.856-.292-4.619 2.502-2.32 2.257-1.1 1.913-.493 1.773.067 1.258.942 1.816 3.001 2.576 2.198.138 1.236-.483 3.1-.226 2.63-.765 3.89-2.079 1.963-1.452 2.095-2.682.242-1.687-.772-1.432-4.456-2.582-2.174-.967-.57.195-1.4-1.328-1.162 1.014-1.139.48.38 2.346.74 1.267 1.751 1.864 3.91 2.501 11.205 2.53 6.834-.977 1.086.103M-277.909 43.092l-.037-.323-.427.479-.8-.655-1.085-.312-2.362.219-.464-.387-1.033.39-.283-.31-.78.806-.19-.464-.325.622-1.216.535-2.461 2.467-.803 1.699-.206 2.027 1.244 3.157 2.801 2.7 1.939.243.696.541 4.006.984 4.572-.447 2.924-.943 2.797-1.732 2.978-3.496.834-2.993-.33-2.431-.58-1.606-1.56-1.835-1.33-.783-3.06-1.335-2.086-.049-2.517.184-1.555.706-2.584 2.397-.335.894"/>
  <path fill="none" stroke="#000" stroke-linecap="round" stroke-linejoin="round" stroke-width="4" d="m-268.17 41.894-1.313 6.414-.014 2.455.839 5.278 2.553 6.35 7.227 12.389.949 3.766-.437 3.782-1.34 2.923-1.514 2.069-2.192 2.04-3.248 1.447-4.174.756-4.309.069-6.213-.961-1.93-.84M-245.438 52.606l-.318.481-.981-.891-.499.249-.22-.331-.366.864.514.812.37-.736.46.071.586-.448.586.117 2.936-1.615 1.776-1.606 2.814-1.324 3.533-2.32 1.457-1.367 1.977-2.668.08-1.28-.412-.436-7.824-.203-3.61 1.105-3.327 2.83-1.591 3.065-.617 6.382.452 3.072 1.12 2.607 1.162 1.545 1.643 1.377 3.108 1.532 4.1 1.112 4.888.547 6.557-.901M-191.615 37.431l.604-2.464-.359-.226-1.415.612-.412-.505-2.082.824-.329-.219-3.145.022-4.693.778-.782.639-1.968.023-1.899 1.086-1.883 1.614.083 1.942.411 1.421 3.006 4.299 6.61 4.422 2.036 2.785 1.019 3.552-.574 1.816-.769 1.227-2.314 2.429-3.113 1.572-1.724.386-1.377.128-3.053-.556M-452.128 27.051l-.529-.331-.244-.798-.086.622.146-.368.193.649"/>
  <path fill="#909090" fill-rule="evenodd" d="M-448 104.945h-1v-1h1zM-552 112.945v-.5l.5-.5.5 1zM-674.5 125.945h-1.5l.5-1h1.5zM-678 125.945h-1v-1h1zM-669 125.945l-1-1v-1l1 .5zM-693 124.945h-1v-1h1zM-671 123.945h-1v-1h1zM-684.5 123.945h-3.5l.5-1h3.5zM-695 123.945h-1v-1h1z"/>
  <path fill="#909090" fill-rule="evenodd" d="M-659 123.945v-1h-1v1zm-2 1v-1h-1v1zm110-12 1.5-1h3l1-1 1 1 1-1 9-1 1 1 1-1 27-1 1-1 1 1 1-1 36-2 1-1 1 1h2l1-1 1 1 1-1h8l1-1 2 2h1l2-2h11l1-1 1 1 1-1h11l1-1 1 1 1-1 9.25.75.25-1.25.5-.5 1 1 1.5-.375 3.5-.625 1 1 1-1 1 1 8-1 1-1 1 1h2l1-1 1 1 3-1 1 1 1-1 48-3 1-1 1 1h1l1-1 1 1 1-1h28l1-1 1 1 4-1 1 1 1-1h20l1-1 1 1 1-1h1l1 1 1-1 1 1 1-1h1l2 2 .5-.5v-1l.5-.5 2 2 1-1h1l1 1 2-2 1 1h3l1-1 1 1h5l1-1 1 1h5l1-1 1 1 15 1 1-1 1 1 1-1 1 1 1-1h2l1 1 1-1 1 1 1-1 33 3 1 1 1-1 1 1 7.5 1.5 5.5.5 2.5 2.5-.25 1.5-38.25-1-1-1-1 1-1-1h-14l-1-1-1 1h-1l-1-1-1 1-1-1h-1l-1 1-1-1-1 1-1-1-16.5-.875-5.5.875-1-1-1 1h-11l-1-1-1 1h-3l-1-1-1 1-1.5-.5-2-.25-4.5.75-1-1-1 1-1-1-1.5.5-2 .25-5-.125-2.5.375-1-1-1 1h-1l-1-1-1 1h-1l-1-1-1 1h-38l-1 1-1-1h-1l-1 1-1-1-1 1-42.5 3.75-4.5 1.25-1-1-1 1-1-1-1 1h-2l-1 1-1-1-1 1h-1l-1-1-1 1-101 8-1-1-1 1-9 1-1-1-1 1h-1l-1-1-1 1h-4l-1 1-1-1h-1l-1 1-1-1h-3l-1 1-1-1-5.5.75-4-.625-42.5 2.875-1 1-1-1-1 1h-10l-1 1-1-1-1 1-55 3-1 1-1-1h-1l-1 1-1-1-1 1-1-1-1 1-1-1h-5l-1 1-1-1h-3.5l.5-1h2l1-1 1 1 .5-.5v-1l1.5-1.5 1 1 1-1 2.25.25.25 1.25v.5l1-.5.25-1.5 43.25-2 1-1 1 1h2l1-1 1 1 1-1h8l1-1 1 1 1-1 29-2 1-1 1 1 1-1 3-1 1 1 2-2h1l1 1 1-1h1.5l.5 1zm3 1v-1h-1v1zm3 0v-1h-1v1zm-5 3v-1h-1v1zm76-6v-1h-1v1zm5 0v-1h-1v1zm62-6v-1h-1v1zm-13 1v-1h-1v1zm14 1v-1h-1v1zm2 0v-1h-1v1zm-8.5 1 .5-1h-5.5l-.5 1zm-23.5 1v-1h-1v1zm4 0v-1h-1v1zm2 0v-1h-1v1zm2 0v-1h-1v1zm-26.5 1 .5-1h-2.5l-.5 1zm2.5 0v-1h-1v1zm7 0v-1h-1v1zm2 0v-1h-1v1zm3 0v-1h-1v1zm99.5-10 .5-1h-5.5l-.5 1zm-14.5 1v-1h-1v1zm-32 5v-1h-1v1zm-12.5 1 .5-1h-3.5l-.5 1zm2.5 0v-1h-1v1zm115-10v-1h-1v1zm4 0v-1h-1v1zm2 0v-1h-1v1zm-43 1v-1h-1v1zm4 0v-1h-1v1zm5.5 0 .5-1h-3.5l-.5 1zm18 0 .5-1h-16.5l-.5 1zm2.5 0v-1h-1v1zm5.5 0 .5-1h-3.5l-.5 1zm4.5 0v-1h-1v1zm-48.5 1 .5-1h-3.5l-.5 1zm2.5 0v-1h-1v1zm54-1v-1.5l-1-.5v1zm3.5-1 .5-1h-2.5l-.5 1zm3.5 1v-1.5l-1-.5v1zm4.75-.25v-1.5l-1.25-.25-1.5 1.5.5.5zm-14.75.25v-1h-1v1zm8 0v-1h-1v1zm14.5 0 .5-1h-5.5l-.5 1zm4 0 .5-1h-2.5l-.5 1zm3 0 .5-1h-1.5l-.5 1zm4 0 .5-1h-1.5l-.5 1zm3 0 .5-1h-1.5l-.5 1zm2.5 0v-1h-1v1zm7.5 0 .5-1h-4.5l-.5 1zM-693 122.945h-1v-1h1zM-699 122.945l-.5 1h-1l-1.5-1.5.5-.5h1.5v.5l.5.5zM-696 120.945h1.5l.5.5-.5.5h-1.5z"/>
  <path fill="#909090" fill-rule="evenodd" d="M-700 121.945v-1.5l.5-.5 1 1 1-1 1.5 1-1 .5.5.5h.5v.5l-.5.5h-2.5v-.5l-.5-.5z"/>
</svg>
