<?xml version="1.0" encoding="UTF-8" standalone="no"?>
<svg
   width="583.98889"
   height="1029.5919"
   viewBox="-702 0 583.98889 1029.5919"
   version="1.2"
   id="svg144"
   sodipodi:docname="trombone.svg"
   inkscape:export-filename="trombone.svg"
   inkscape:export-xdpi="24.658003"
   inkscape:export-ydpi="24.658003"
   inkscape:version="1.2.1 (9c6d41e4, 2022-07-14)"
   xmlns:inkscape="http://www.inkscape.org/namespaces/inkscape"
   xmlns:sodipodi="http://sodipodi.sourceforge.net/DTD/sodipodi-0.dtd"
   xmlns="http://www.w3.org/2000/svg"
   xmlns:svg="http://www.w3.org/2000/svg"><defs
   id="defs148" />
<sodipodi:namedview
   id="namedview146"
   pagecolor="#ffffff"
   bordercolor="#000000"
   borderopacity="0.25"
   inkscape:showpageshadow="2"
   inkscape:pageopacity="0.0"
   inkscape:pagecheckerboard="0"
   inkscape:deskcolor="#d1d1d1"
   showgrid="false"
   inkscape:zoom="0.12606838"
   inkscape:cx="-1094.644"
   inkscape:cy="273.66101"
   inkscape:window-width="1440"
   inkscape:window-height="533"
   inkscape:window-x="0"
   inkscape:window-y="25"
   inkscape:window-maximized="0"
   inkscape:current-layer="svg144" />
<title
   id="title132">DESIGN MON SITE</title>

\n<a
   id="a1146">
  <g
     id="g138"
     transform="translate(-394.55712,-663.24801)">
    <path
       fill="none"
       stroke="#000000"
       stroke-width="4"
       stroke-linecap="round"
       stroke-linejoin="round"
       d="m -287.036,798.094 0.491,0.075 0.579,-1.747 1.362,-1.877 0.299,0.044 3.288,-3.144 1.649,-0.71 0.958,-0.058 4.674,-2.103 10.189,-5.314 9.483,-4.089 2.094,-1.519 7.563,-2.478 6.72,-2.973 8.45,-2.722 5.226,-2.102 7.975,-3.746 9.545,-5.479 13.583,-7.044 7.614,-3.555 25.174,-9.586 2.522,-0.695 5.284,-2.581 1.398,-0.134 2.979,-1.446 14.948,-5.933 3.053,-0.73 7.194,-3.344 2.76,-1.973 1.489,-0.123 8.465,-2.832 8.234,-3.27 31.3982,-9.755 11.0311,-4.647 9.5471,-2.677 3.758,-0.617 11.6056,-3.863 8.0791,-1.992 18.94863,-5.953 36.78577,-9.263 1.7919,-0.711 21.0061,-3.428 14.8101,-2.01 7.3407,-1.645 8.4112,-1.412 3.4555,-0.812 1.4601,-0.873 2.2362,0.247 0.6089,0.774 0.6414,-0.635 -0.2459,0.459 -0.567,-0.585"
       id="path136" />
  </g>
  <g
     id="g142"
     transform="translate(-394.55712,-663.24801)">
    <path
       fill="none"
       stroke="#000000"
       stroke-width="4"
       stroke-linecap="round"
       stroke-linejoin="round"
       d="m 80.1304,672.838 -0.2443,0.182 -0.1449,-0.325 0.1622,0.487 -0.2433,-0.129 0.0832,0.454 0.308,-1.259 -0.021,0.407 1.6534,-0.887 0.4419,0.289 1.7253,-1.685 0.3835,0.413 1.0297,-1.824 0.242,0.681 0.8366,-0.569 1.0036,0.414 2.07,-0.1 0.3734,0.258 1.5575,-0.745 0.985,-0.034 0.4109,0.555 1.48,-0.867 0.768,0.614 0.2023,-0.227 0.416,0.632 1.7593,1.28 0.3218,-0.13 1.1348,1.488 1.9477,1.577 5.474,5.581 0.69,0.186 2.478,3.022 1.219,2.949 1.224,1.666 1.822,4.105 1.63,5.177 0.502,2.597 1.021,1.158 0.589,2.794 1.01,2.737 1.278,5.578 0.789,6.386 2.062,7.383 2.165,14.153 2.625,11.209 2.873,18.638 4.597,18.111 4.48,13.108 3.875,15.34 4.295,22.084 3.954,15.71 5.556,30.942 3.858,18.211 3.167,11.631 7.132,22.344 1.692,8.243 5.939,24.802 4.488,14.146 2.083,7.623 3.603,16.268 3.829,24.8 2.087,16.28 1.536,8.15 4.133,36.08 1.673,9.57 4.548,20.7 6.102,24.27 4.243,13.73 3.514,6.95 1.752,2.48 9.781,21.18 6.709,17.63 2.994,10.53 3.553,8.25 3.688,10.09 1.684,6.29 2.211,12.07 1.724,18.46 1.981,12.2 3.303,15.09 2.396,7.92 1.179,6.28 0.628,5.83 0.692,12.4 2.682,8.19 5.178,8.26 1.018,2.62 0.785,4.51 -0.197,4.25 -1.06,8.6 0.027,3 0.777,6.69 0.066,15.78 -1.241,10.63 0.609,8.48 0.725,2.37 -0.079,1.83 -2.025,4.95 -0.906,5.18 0.047,3.48 -0.367,1.45 -1.794,2.27 -1.107,2.36 -0.969,6.34 -0.753,2.08 -3.259,2.78 -0.802,1.59 -0.305,-0.13 -0.863,0.82 -0.31,-0.45 -0.358,0.06 -4.018,13.66 -3.325,4.85 -1.443,1.23 -0.707,-0.07 -0.295,0.33 -1.849,3.86 -1.944,2.65 -2.636,8.65 -1.883,4.8 -1.867,2.72 -2.96,3.1 -1.217,2.16 -1.731,2.08 -3.681,12.37 -1.375,1.69 -2.333,1.66 -2.248,1.27 -1.244,0.12 -2.985,1.19 -2.122,1.66 -1.345,2.65 -2.352,6.95 -4.041,6.84 -2.43,1.71 -3.585,3.98 -3.302,5.05 -3.235,6.25 -0.781,2.1 -0.319,0.02 -1.726,2.17 -2.591,3.83 -6.113,6.76 -2.29,3.92 -2.316,6 -4.358,6.84 -5.252,3.57 -3.65,3.31 -2.813,4.12 -3.305,6.09 -0.688,1.85 -0.628,0.27 -1.088,1.33 -0.822,0.26 -3.024,2.34 -2.885,2.72 -0.405,0.05 -2.995,9.7 -1.438,3.71 -0.999,1.57 -0.389,1.45 -0.091,-0.19 -0.515,0.91 -0.224,-0.06 -0.491,1.35 -2.152,7.72 -1.504,1.63 -2.079,1.28 -1.323,1.64 -0.592,1.65 -1.324,2.04 -0.388,0.16 -2.089,6.65 -2.453,3.94 -1.916,2.54 -5.045,4.57 -1.957,3.44 -2.94,3.33 -0.515,-0.28 -1.157,1.05 -2.27,0.84 -0.787,-0.28 -4.41,2.55 -0.308,0.45 -3.347,1.48 -1.59,0.49 -0.918,-0.42 -2.335,1.46 -0.918,1.14 -0.987,0.07 -2.3615,1.35 -1.8764,1.38 -0.9007,1.1 -5.7613,3.05 -2.1875,0.59 -3.0636,1.94 -2.6332,-0.64 -2.2595,-0.15 -0.9349,0.38 -4.4614,-1 -0.3771,-0.02 -0.434,0.56 -0.7414,-0.49 -3.5559,-0.4 -3.5075,-1.3 -1.1314,-0.13 -2.8154,-1.29 -0.956,-0.07 -0.6875,-0.59 -0.6396,-0.16 -0.4812,0.51 -0.8757,-0.48 -0.166,-0.7 -0.4029,-0.26 -0.2522,0.51 -1.7378,0.9 -0.4103,-0.07 -1.7207,-0.46 -0.9199,-0.82 -1.5805,-0.1 -3.4791,-1.54 -2.7317,-1.68 h -0.6504 l -0.2782,-0.54 -2.0684,-1.57 -0.7687,0.57 -1.4482,-1.96 -0.1976,0.2 -0.9288,-0.3 -5.567,-3.27 -0.9841,-1.4 h -0.4867 l -3.3528,-1.94 -0.3904,-0.67 -1.4875,-0.15 -3.8737,-2.11 -1.048,-1.58 -2.4929,-1.54 -1.1775,-0.37 -2.1231,-1.91 -0.9271,-1.31 -3.0334,-0.99 -2.5938,-2.39 -1.75549,-0.91 -1.05548,-0.09 -0.87878,-1.23 -5.0709269,-4.72 -1.4110131,-0.94 -2.20324,-2.3 -2.32209,-3.27 -1.52118,-1.58 -0.68689,-0.06 -3.62291,-4.32 -0.3596,0.4 -0.4742,-0.21 -1.4046,-3.51 -0.9916,-1.19 -0.5912,-0.09 -1.7701,-1.2 -7.5641,-7.88 -1.4865,-1.24 -0.6423,0.14 -0.3516,-0.29 -1.2883,-2.22 -0.3238,0.26 -3.0177,-0.81 -2.8508,-2.7 -1.7792,-0.92 -6.5233,-5.36 -5.3287,-3.62 -2.5907,-1.49 -1.7061,-0.56 -1.6959,-1.41 -0.9288,-1.53 -0.4293,0.07 -2.1116,-1.35 -1.1451,-0.29 -4.1167,-4.02 -3.8652,-2.1 -1.4421,-0.31 -8.8305,-5.9 -4.8253,-4.41 -3.524,-2.3 -6.2448,-5.21 -0.8592,-0.25 -1.4632,-1.82 -0.7799,-0.27 -2.0988,-2.31 -0.8845,-1.42 -1.5724,-1.12 -0.8712,-0.02 -2.157,-3.75 -1.019,-2.75 -0.589,-0.25 -6.783,-7.91 -6.431,-6.49 -4.184,-5.71 -2.596,-2.89 -4.488,-7.58 -3.709,-5.15 -7.968,-13.32 -2.004,-4.32 -0.954,-3.23 -0.691,-0.64 -2.381,-4.79 -1.917,-5.69 -0.632,-0.79 -0.814,-2.15 -0.394,-2.03 -6.292,-18.2 -2.125,-4.66 -4.694,-13.22 -0.622,-0.98 -2.328,-9.43 -1.101,-3.6 -0.559,-0.47 -0.587,-3.66 -1.788,-5.88 -0.736,-0.83 -2.52,-6.01 -3.164,-10.73 -0.555,-0.38 -0.438,-0.94 -4.63,-13.05 -5.067,-23.5 -2.652,-10.17 -3.006,-15.1 -1.419,-9.4 -0.667,-12.58 -1.012,-5.86 -0.283,-4.41 -2.665,-13.72 -0.081,-3.29 -1.196,-8.68 -0.446,-6.03 -1.09,-6.86 -0.479,-6.14 -2.5,-8.5 -0.752,-5.05 -1.517,-5.65 -2.017,-11.16 -2.464,-8.2 -0.327,-2.4 -2.927,-7.28 -2.136,-6.38 -2.274,-8.54 -0.474,-0.72 -1.244,-5.06 -0.757,-1.79 -2.119,-9.03 -0.741,-5.44 0.177,-1.45 -1.725,-5.11 -0.807,-5.91 -1.202,-3.15 -0.387,-0.04 -0.433,-0.72 -2.721,-11.68 -2.901,-8.94 -0.816,-4.95 -1.04,-3.65 -0.155,-1.89 -5.391,-19.75 -0.678,-3.82 -1.54,-4.69 -0.782,-1.25 -1.066,-5.32 -1.538,-4.27 -1.012,-5.38 -2.607,-7.05 -2.494,-9.69 -0.648,-0.41 -0.157,-2.02 -0.889,-3.85 -0.72,-2.32 -1.027,-1.67 0.088,-0.84 -2.351,-9.5 -0.932,-1.65 -0.927,-3.82 -1.477,-7.78 -3.677,-11.25 -0.269,0.27 -0.318,-0.4 -1.429,-6.81 -1.145,-3.18 -0.558,-0.77 -1.474,-6.81 -1.252,-3.44 -0.877,-1.3 -0.566,-3.2 0.21,-0.88 -1.625,-3.18 -0.572,-2.1 0.013,-1.09 -2.003,-5.535 -1.043,-5.924 0.236,-0.555 -1.598,-4.234 0.106,-0.726 -0.397,-0.445 -0.388,-2.862 -0.611,-0.511 -0.182,-1.545 -0.039,0.255 -0.263,-0.244 -0.275,-6.227 -0.516,-0.218 -0.16,-0.638 0.228,-0.332 -0.462,-1.753 -0.528,-1.459 -0.599,-0.589 -1.492,-5.06 -0.231,-1.522 0.197,-0.891 -1.792,-3.411 0.009,-1.105 -1.071,-4.841 -0.788,-0.662 -0.426,-3.678 -1.805,-4.848 -1.569,-6.349 -0.457,-0.448 -0.363,-3.813 -0.615,-2.506 -0.048,-0.876 0.53,-0.484 -1.627,-3.169 0.251,-0.302 -0.817,-3.404 -0.393,-0.011 -0.37,-2.58 -0.636,-1.006 0.302,-1.484 -0.889,-1.861 0.475,-2.404 -0.409,-0.298 -0.881,-2.599 -0.252,-2.236 0.28,-0.414 -0.592,-0.728 -0.282,-2.029 -0.144,-2.117 0.265,-0.32 -0.413,-0.596 -0.394,-3.583 -0.35,-0.329 -0.356,-1.784 -0.022,0.244 -0.346,-0.146 0.184,-2.473 -0.297,-0.757 -0.542,-0.083 -0.126,-0.571 0.254,-0.247 -0.457,-2.77 -0.277,-0.525 -0.115,0.175 0.18,-0.395 0.089,0.709 0.124,-0.296 -0.396,-0.696 0.003,-1.29 -0.191,0.502 0.426,0.252 -0.328,-0.443 -0.393,0.021 0.022,-1.194 -0.152,0.571 0.174,-1.856 -0.196,0.209 -0.306,-0.727 0.293,0.118 -0.113,-0.498 -0.35,0.329 0.185,-0.188 -0.336,-1.127 0.393,0.77 -0.238,0.37 0.579,-0.047 -0.395,-0.155 -0.06,-0.886 -0.229,-0.258 -0.073,0.306 0.202,-0.353 0.138,0.999 0.082,-0.579 -0.435,-0.779 0.478,0.481 -0.337,-0.148 0.722,-1.19 -0.318,-0.523 -0.21,-2.089 -0.013,0.365 -0.274,-0.325 0.274,0.209 0.012,1.027 -0.338,0.387 -0.199,-0.279 0.221,0.022 -0.007,0.889 0.179,-1.209 0.098,0.876 -0.056,-1.57 -0.141,0.758 -0.451,0.146 -0.098,-0.341 0.415,0.215 0.293,-0.225 -0.192,0.396 -0.404,0.11 -0.065,-0.303 0.27,-0.048 0.047,0.59 0.551,-2.766 0.627,-1.127"
       id="path140"
       inkscape:label="path140" />
  </g>
</a>
</svg>
